<?xml version="1.0" encoding="utf-8"?>
<!-- Generator: Adobe Illustrator 16.0.0, SVG Export Plug-In . SVG Version: 6.00 Build 0)  -->
<!DOCTYPE svg PUBLIC "-//W3C//DTD SVG 1.1//EN" "http://www.w3.org/Graphics/SVG/1.1/DTD/svg11.dtd">
<svg version="1.1" id="Layer_1" xmlns="http://www.w3.org/2000/svg" xmlns:xlink="http://www.w3.org/1999/xlink" x="0px" y="0px"
	 width="301.269px" height="301.269px" viewBox="0 0 301.269 301.269" enable-background="new 0 0 301.269 301.269"
	 xml:space="preserve">
<g>
	<path fill="#FFFFFF" d="M150.634,212.115c-33.9,0-61.479-27.58-61.479-61.48c0-33.9,27.579-61.48,61.479-61.48
		s61.479,27.58,61.479,61.48C212.113,184.535,184.534,212.115,150.634,212.115z M150.634,101.154
		c-27.283,0-49.479,22.197-49.479,49.48s22.196,49.48,49.479,49.48s49.479-22.196,49.479-49.48S177.917,101.154,150.634,101.154z"/>
	<g>
		<path fill="#FFFFFF" d="M150.635,68.759c-3.313,0-6-2.687-6-6V6c0-3.313,2.687-6,6-6s6,2.687,6,6v56.759
			C156.635,66.072,153.948,68.759,150.635,68.759z"/>
		<path fill="#FFFFFF" d="M150.635,301.269c-3.313,0-6-2.688-6-6v-56.758c0-3.314,2.687-6,6-6s6,2.686,6,6v56.758
			C156.635,298.582,153.948,301.269,150.635,301.269z"/>
	</g>
	<g>
		<path fill="#FFFFFF" d="M212.771,94.497c-1.535,0-3.071-0.586-4.242-1.757c-2.344-2.343-2.344-6.142,0-8.485l40.135-40.135
			c2.342-2.343,6.143-2.343,8.484,0c2.344,2.343,2.344,6.142,0,8.485L217.014,92.74C215.843,93.911,214.307,94.497,212.771,94.497z"
			/>
		<path fill="#FFFFFF" d="M48.362,258.906c-1.535,0-3.071-0.586-4.242-1.757c-2.344-2.343-2.344-6.142,0-8.485l40.134-40.134
			c2.342-2.343,6.143-2.343,8.484,0c2.344,2.343,2.344,6.142,0,8.485l-40.134,40.134C51.434,258.32,49.897,258.906,48.362,258.906z"
			/>
	</g>
	<g>
		<path fill="#FFFFFF" d="M295.269,156.634H238.51c-3.313,0-6-2.686-6-6c0-3.313,2.687-6,6-6h56.759c3.313,0,6,2.687,6,6
			C301.269,153.949,298.582,156.634,295.269,156.634z"/>
		<path fill="#FFFFFF" d="M62.758,156.634L62.758,156.634H6c-3.314,0-6-2.688-6-6c0-3.313,2.687-6,6-6l0,0l56.758,0.001
			c3.313,0,6,2.687,6,6C68.758,153.949,66.071,156.634,62.758,156.634z"/>
	</g>
	<g>
		<path fill="#FFFFFF" d="M252.906,258.906c-1.535,0-3.071-0.586-4.242-1.757l-40.135-40.135c-2.344-2.343-2.344-6.142,0-8.485
			c2.342-2.343,6.143-2.343,8.484,0l40.135,40.135c2.344,2.344,2.344,6.143,0,8.485C255.978,258.32,254.441,258.906,252.906,258.906
			z"/>
		<path fill="#FFFFFF" d="M88.496,94.497c-1.536,0-3.071-0.586-4.243-1.757L44.12,52.605c-2.343-2.343-2.343-6.142,0.001-8.485
			c2.342-2.344,6.142-2.342,8.485,0l40.133,40.134c2.343,2.343,2.343,6.142-0.001,8.485C91.567,93.911,90.031,94.497,88.496,94.497z
			"/>
	</g>
</g>
</svg>
