<?xml version="1.0" encoding="utf-8"?>
<!-- Generator: Adobe Illustrator 16.0.0, SVG Export Plug-In . SVG Version: 6.00 Build 0)  -->
<!DOCTYPE svg PUBLIC "-//W3C//DTD SVG 1.1//EN" "http://www.w3.org/Graphics/SVG/1.1/DTD/svg11.dtd">
<svg version="1.1" id="Layer_1" xmlns="http://www.w3.org/2000/svg" xmlns:xlink="http://www.w3.org/1999/xlink" x="0px" y="0px"
	 width="215.998px" height="186.348px" viewBox="0 0 215.998 186.348" enable-background="new 0 0 215.998 186.348"
	 xml:space="preserve">
<g>
	<path fill="#FFFFFF" d="M99.772,11c36.468,0,66.138,20.597,66.138,50.831v0.082c0,5.906,4.663,10.758,10.564,10.991
		c15.728,0.623,28.523,10.42,28.523,21.84c0,11.881-13.802,21.918-30.139,21.918H45.73c-0.647-0.219-1.324-0.379-2.023-0.475
		c-9.236-1.27-17.653-5.375-23.699-11.561C14.199,98.684,11,91.158,11,83.435c0-11.528,7.189-22.37,18.796-28.399
		c15.813-6.208,20.239-9.796,29.813-17.559l1.123-0.91c4.475-3.623,8.567-7.942,12.526-12.12C81.761,15.476,86.13,10.853,99.772,11
		 M99.772,0c-28.86,1.325-32.165,16.849-45.962,28.019c-10.24,8.292-13.319,11.04-28.534,16.974C10.188,52.602,0,66.95,0,83.435
		c0,22.1,18.307,40.366,42.21,43.649v0.578h132.649c22.715,0,41.139-14.736,41.139-32.918c0-17.076-15.33-32.014-36.074-33.709
		c-0.666-0.054-1.337-0.095-2.014-0.122c0-0.027-0.128-0.303-0.128-0.33C175.939,24.648,142.373,0,99.772,0L99.772,0z"/>
	<g>
		<circle fill="#FFFFFF" cx="58.803" cy="152.373" r="15.443"/>
		<circle fill="#FFFFFF" cx="82.188" cy="177.522" r="8.825"/>
		<circle fill="#FFFFFF" cx="109.616" cy="152.373" r="15.443"/>
		<circle fill="#FFFFFF" cx="133" cy="177.522" r="8.825"/>
		<circle fill="#FFFFFF" cx="160.428" cy="152.373" r="15.443"/>
		<circle fill="#FFFFFF" cx="183.813" cy="177.522" r="8.825"/>
	</g>
</g>
</svg>
